# xmcd
#
# Track frame offsets:
#	150
#	9690
#	23586
#	38683
#	62215
#	76523
#	89495
#	104232
#	119774
#	133247
#	145593
#
# Disc length: 2147 seconds
#
# Revision: 0
# Processed by: cddbd v1.5.2PL0 Copyright (c) Steve Scherf et al.
# Submitted via: EZCDAudioConverter 1.2.2.1
#
DISCID=9308610b
DTITLE=Joel Kaiser and The Devil's Own - Leavin' This Life Behind . . .
DYEAR=1900
DGENRE=
TTITLE0=Leavin' This Life Behind
TTITLE1=Devil Knows Best
TTITLE2=Wishing For Death
TTITLE3=The Bottle
TTITLE4=Honkin' Tonkin' Until The Coffin
TTITLE5=He's Comin', He's Callin'
TTITLE6=Mind Your Own Business
TTITLE7=Battlin' Demons
TTITLE8=Goddam Son Of A Preacherman
TTITLE9=Livin' With Kurt
TTITLE10=Trainhopper Blues
EXTD=
EXTT0=
EXTT1=
EXTT2=
EXTT3=
EXTT4=
EXTT5=
EXTT6=
EXTT7=
EXTT8=
EXTT9=
EXTT10=
PLAYORDER=
